<?xml version="1.0" encoding="windows-1252" standalone="no"?>
<!DOCTYPE svg PUBLIC "-//W3C//DTD SVG 1.1//EN" "http://www.w3.org/Graphics/SVG/1.1/DTD/svg11.dtd">
<svg viewBox="-326.5625 -10 4613.125 830" id="rootDoc" max_x="1520" max_y="230" width="2480" height="330" version="1.1" xmlns="http://www.w3.org/2000/svg" xmlns:xlink="http://www.w3.org/1999/xlink">

<defs>

<style type="text/css">

<![CDATA[

path {stroke-width: 3;}

line { fill:none; stroke-linecap: round; stroke-width: 3; }

text{font-family: Arial;font-size: 20px;}.collapsed {stroke-width:1;stroke: gray;fill: #c8c1bc;}

]]>

</style>

</defs>

<g id="colorRanges" display="block"/><line stroke="black" style="stroke-width: 2;" x1="-326.5625" y1="5" x2="-283.346790225183" y2="5"/><text style="font-size: 20" x="-278.346790225183" y="13.3333333333333">0.01</text><g id="legend" transform="translate(-326.5625,10)"><rect width="306.5625" height="20" fill="grey"/><text x="5" y="15" style="font-size: 12px; font-weight: bold">Legend: </text><rect x="0" y="20" width="306.5625" height="100" fill="lightgrey"/><g transform="translate(0,0)" id="Rdataset03"><rect y="20" width="306.5625" height="100" fill="lightgrey"/><rect x="5" y="58" width="25" height="25" stroke="black" fill="#ff0000"/><rect x="5" y="83" width="25" height="25" stroke="black" fill="#00ff00"/></g><g transform="translate(0,0)" id="Tdataset03"><text x="5" y="47" style="font-size: 14px; font-weight: bold;">Dataset Metadata_2</text><text style="font-size: 12px" x="45" y="77">Biomass</text><text style="font-size: 12px" x="45" y="102">forestAge</text></g></g>

<g id="mainTree"><g id="gOROOT">

<line stroke="#000000" x1="1" y1="65.5555555555556" x2="20" y2="65.5555555555556"/>

<g id="nodesgOROOT"><line stroke="#000000" x1="20" y1="30" x2="20" y2="116.666666666667"/>

<g id="gI1">

<g id="nodesgI1">

<text xml:space="preserve" id="tI1" fill="black" x="25.1841680687764" y="36">AP1 APAR ITLMA1</text>

<line stroke="#000000" x1="20" y1="30" x2="26.1841680687764" y2="30"/>

</g></g>

<g id="gI2">

<g id="nodesgI2">

<text xml:space="preserve" id="tI2" fill="black" x="25.7027565860742" y="56">AP2 APAR ITLMA2</text>

<line stroke="#000000" x1="20" y1="50" x2="26.7027565860742" y2="50"/>

</g></g>

<g id="gI3">

<line stroke="#000000" x1="20" y1="116.666666666667" x2="672.980731555535" y2="116.666666666667"/>

<g id="nodesgI3"><line stroke="#000000" x1="672.980731555535" y1="80" x2="672.980731555535" y2="153.333333333333"/>

<g id="gI4">

<line stroke="#000000" x1="672.980731555535" y1="80" x2="824.659229723189" y2="80"/>

<g id="nodesgI4"><line stroke="#000000" x1="824.659229723189" y1="70" x2="824.659229723189" y2="90"/>

<g id="gI5">

<g id="nodesgI5">

<text xml:space="preserve" id="tI5" fill="black" x="1519" y="76">CC1 CCON ITLMA1</text>

<line stroke="#000000" x1="824.659229723189" y1="70" x2="1520" y2="70"/>

</g></g>

<g id="gI6">

<g id="nodesgI6">

<text xml:space="preserve" id="tI6" fill="black" x="1112.18891603476" y="96">CL2 CLEF ITLMA2</text>

<line stroke="#000000" x1="824.659229723189" y1="90" x2="1113.18891603476" y2="90"/>

</g></g>

</g></g><g id="gI7">

<line stroke="#000000" x1="672.980731555535" y1="153.333333333333" x2="753.119943761957" y2="153.333333333333"/>

<g id="nodesgI7"><line stroke="#000000" x1="753.119943761957" y1="110" x2="753.119943761957" y2="205"/>

<g id="gI8">

<g id="nodesgI8">

<text xml:space="preserve" id="tI8" fill="black" x="1269.73178601885" y="116">LL1 LLAT ITLMA1</text>

<line stroke="#000000" x1="753.119943761957" y1="110" x2="1270.73178601885" y2="110"/>

</g></g>

<g id="gI9">

<line stroke="#000000" x1="753.119943761957" y1="145" x2="885.735992347939" y2="145"/>

<g id="nodesgI9"><line stroke="#000000" x1="885.735992347939" y1="130" x2="885.735992347939" y2="160"/>

<g id="gI10">

<line stroke="#000000" x1="885.735992347939" y1="160" x2="1433.39139604029" y2="160"/>

<g id="nodesgI10"><line stroke="#000000" x1="1433.39139604029" y1="150" x2="1433.39139604029" y2="170"/>

<g id="gI11">

<g id="nodesgI11">

<text xml:space="preserve" id="tI11" fill="black" x="1438.98611335193" y="156">PM1 PMIC ITLMA1</text>

<line stroke="#000000" x1="1433.39139604029" y1="150" x2="1439.98611335193" y2="150"/>

</g></g>

<g id="gI12">

<g id="nodesgI12">

<text xml:space="preserve" id="tI12" fill="black" x="1438.8953603614" y="176">PM2 PMIC ITLMA2</text>

<line stroke="#000000" x1="1433.39139604029" y1="170" x2="1439.8953603614" y2="170"/>

</g></g>

</g></g><g id="gI13">

<g id="nodesgI13">

<text xml:space="preserve" id="tI13" fill="black" x="1409.46114043377" y="136">PC1 PCAN ITLMA1</text>

<line stroke="#000000" x1="885.735992347939" y1="130" x2="1410.46114043377" y2="130"/>

</g></g>

</g></g><g id="gI14">

<line stroke="#000000" x1="753.119943761957" y1="205" x2="891.721368151751" y2="205"/>

<g id="nodesgI14"><line stroke="#000000" x1="891.721368151751" y1="190" x2="891.721368151751" y2="220"/>

<g id="gI15">

<g id="nodesgI15">

<text xml:space="preserve" id="tI15" fill="black" x="1234.30786871644" y="196">CM2 CMON ITLMA2</text>

<line stroke="#000000" x1="891.721368151751" y1="190" x2="1235.30786871644" y2="190"/>

</g></g>

<g id="gI16">

<line stroke="#000000" x1="891.721368151751" y1="220" x2="1143.89799940074" y2="220"/>

<g id="nodesgI16"><line stroke="#000000" x1="1143.89799940074" y1="210" x2="1143.89799940074" y2="230"/>

<g id="gI17">

<g id="nodesgI17">

<text xml:space="preserve" id="tI17" fill="black" x="1158.1833959481" y="216">CF1 CFRA ITLMA1</text>

<line stroke="#000000" x1="1143.89799940074" y1="210" x2="1159.1833959481" y2="210"/>

</g></g>

<g id="gI18">

<g id="nodesgI18">

<text xml:space="preserve" id="tI18" fill="black" x="1154.24644478761" y="236">CF3 CFRA ITLMA3</text>

<line stroke="#000000" x1="1143.89799940074" y1="230" x2="1155.24644478761" y2="230"/>

</g></g>

</g></g></g></g></g></g></g></g></g></g></g>

<g id="datasets"><g id="dataset03" display="block"><line stroke="black" stroke-width="1" stroke-dasharray="5,5" x1="1621.32986335193" y1="153" x2="1703.15625" y2="153" style="stroke-width: 1; opacity: 0.3"/>

<line stroke="black" stroke-width="1" stroke-dasharray="5,5" x1="1428.87818121644" y1="193" x2="1703.15625" y2="193" style="stroke-width: 1; opacity: 0.3"/>

<line stroke="black" stroke-width="1" stroke-dasharray="5,5" x1="1621.2391103614" y1="173" x2="1703.15625" y2="173" style="stroke-width: 1; opacity: 0.3"/>

<line stroke="black" stroke-width="1" stroke-dasharray="5,5" x1="1341.6599584481" y1="213" x2="1703.15625" y2="213" style="stroke-width: 1; opacity: 0.3"/>

<line stroke="black" stroke-width="1" stroke-dasharray="5,5" x1="1442.15366101885" y1="113" x2="1703.15625" y2="113" style="stroke-width: 1; opacity: 0.3"/>

<line stroke="black" stroke-width="1" stroke-dasharray="5,5" x1="209.179319086074" y1="53" x2="1703.15625" y2="53" style="stroke-width: 1; opacity: 0.3"/>

<line stroke="black" stroke-width="1" stroke-dasharray="5,5" x1="1595.16426543377" y1="133" x2="1703.15625" y2="133" style="stroke-width: 1; opacity: 0.3"/>

<line stroke="black" stroke-width="1" stroke-dasharray="5,5" x1="1337.72300728761" y1="233" x2="1703.15625" y2="233" style="stroke-width: 1; opacity: 0.3"/>

<line stroke="black" stroke-width="1" stroke-dasharray="5,5" x1="208.660730568776" y1="33" x2="1703.15625" y2="33" style="stroke-width: 1; opacity: 0.3"/>

<line stroke="black" stroke-width="1" stroke-dasharray="5,5" x1="1291.25141603476" y1="93" x2="1703.15625" y2="93" style="stroke-width: 1; opacity: 0.3"/>

<rect x="1711.15625" y="145.5" height="15" width="4.48475184373131" style="fill:#ff0000; stroke:#ff0000"/>

<rect x="1715.64100184373" y="145.5" height="15" width="224.237592186566" style="fill:#00ff00; stroke:#00ff00"/>

<rect x="1711.15625" y="185.5" height="15" width="16.4440900936815" style="fill:#ff0000; stroke:#ff0000"/>

<rect x="1727.60034009368" y="185.5" height="15" width="164.440900936815" style="fill:#00ff00; stroke:#00ff00"/>

<rect x="1711.15625" y="165.5" height="15" width="7.47458640621886" style="fill:#ff0000; stroke:#ff0000"/>

<rect x="1718.63083640622" y="165.5" height="15" width="264.102053019733" style="fill:#00ff00; stroke:#00ff00"/>

<rect x="1711.15625" y="205.5" height="15" width="22.4237592186566" style="fill:#ff0000; stroke:#ff0000"/>

<rect x="1733.58000921866" y="205.5" height="15" width="144.508670520231" style="fill:#00ff00; stroke:#00ff00"/>

<rect x="1711.15625" y="105.5" height="15" width="1.69423958540961" style="fill:#ff0000; stroke:#ff0000"/>

<rect x="1712.85048958541" y="105.5" height="15" width="498.30576041459" style="fill:#00ff00; stroke:#00ff00"/>

<rect x="1711.15625" y="45.5" height="15" width="9.96611520829181" style="fill:#ff0000; stroke:#ff0000"/>

<rect x="1721.12236520829" y="45.5" height="15" width="323.898744269484" style="fill:#00ff00; stroke:#00ff00"/>

<rect x="1711.15625" y="65.5" height="15" width="59.9960135539167" style="fill:#ff0000; stroke:#ff0000"/>

<rect x="1771.15226355392" y="65.5" height="15" width="249.152880207295" style="fill:#00ff00; stroke:#00ff00"/>

<rect x="1711.15625" y="125.5" height="15" width="49.830576041459" style="fill:#ff0000; stroke:#ff0000"/>

<rect x="1760.98682604146" y="125.5" height="15" width="269.085110623879" style="fill:#00ff00; stroke:#00ff00"/>

<rect x="1711.15625" y="225.5" height="15" width="17.9390073749253" style="fill:#ff0000; stroke:#ff0000"/>

<rect x="1729.09525737493" y="225.5" height="15" width="249.152880207295" style="fill:#00ff00; stroke:#00ff00"/>

<rect x="1711.15625" y="25.5" height="15" width="16.9423958540961" style="fill:#ff0000; stroke:#ff0000"/>

<rect x="1728.0986458541" y="25.5" height="15" width="249.152880207295" style="fill:#00ff00; stroke:#00ff00"/>

<rect x="1711.15625" y="85.5" height="15" width="5.03288818018736" style="fill:#ff0000; stroke:#ff0000"/>

<rect x="1716.18913818019" y="85.5" height="15" width="348.814032290213" style="fill:#00ff00; stroke:#00ff00"/>

</g></g>

<g id="bootstraps"/>

<g id="dashLinks"/>

<g id="horTransfers"/>

</svg>